<svg width="471" height="313" viewBox="0 0 471 313" fill="none" xmlns="http://www.w3.org/2000/svg">
<path d="M55.6958 52.3563L44.745 146.99L131.774 151.247C131.774 151.247 156.608 92.4211 157.22 65.4274L55.6958 52.3563Z" fill="#1481BA"/>
<path d="M131.762 151.247C131.762 151.247 129.819 136.712 119.504 128.51C119.504 128.51 143.372 108.783 151.427 95.9095C151.427 95.9095 140.464 133.057 131.762 151.247Z" fill="#231F20"/>
<path d="M115.006 52.3355H100.982V71.7917H115.006V52.3355Z" fill="white"/>
<path d="M114.995 72.3108H100.982C100.826 72.3108 100.676 72.2561 100.566 72.1588C100.456 72.0614 100.394 71.9294 100.394 71.7917V52.3355C100.394 52.1978 100.456 52.0658 100.566 51.9684C100.676 51.8711 100.826 51.8164 100.982 51.8164H114.995C115.151 51.8164 115.301 51.8711 115.411 51.9684C115.521 52.0658 115.583 52.1978 115.583 52.3355V71.7917C115.583 71.9294 115.521 72.0614 115.411 72.1588C115.301 72.2561 115.151 72.3108 114.995 72.3108ZM101.571 71.2726H114.406V52.8546H101.571V71.2726Z" fill="#231F20"/>
<path d="M326.167 175.344C326.167 175.344 318.855 236.349 320.574 240.897C322.294 245.444 382.888 265.907 391.059 269.313C399.231 272.718 420.273 269.313 420.273 269.313L428.869 181.064L326.167 175.344Z" fill="#1481BA"/>
<path d="M327.345 245.06C327.345 245.06 346.185 245.06 356.241 241.084C356.241 241.084 377.683 262.523 384.042 266.676C384.089 266.676 341.675 252.452 327.345 245.06Z" fill="#231F20"/>
<path d="M386.679 166.306L370.418 164.048L366.43 186.375L382.691 188.633L386.679 166.306Z" fill="#231F20"/>
<path d="M151.427 173.984L48.513 166.83L36.9853 251.663L143.808 259.761L151.427 173.984Z" fill="#231F20"/>
<path d="M125.922 165.937L65.2217 161.245C65.2217 161.245 66.8938 163.155 66.2933 163.788C65.6927 164.422 63.4202 164.204 64.2562 165.055C64.7937 165.462 65.1661 166.013 65.317 166.624C65.4678 167.234 65.3889 167.872 65.0922 168.44C64.3739 170.132 64.8567 170.879 65.575 171.295C66.2933 171.71 63.22 173.309 64.0796 173.371C64.9391 173.433 125.993 177.649 125.993 177.649C125.993 177.649 124.203 175.427 124.921 174.897C125.639 174.368 128.453 174.731 127.358 172.821C126.263 170.91 125.392 170.277 126.593 169.488C127.794 168.699 125.416 167.214 125.757 166.893C125.865 166.755 125.936 166.597 125.965 166.432C125.993 166.266 125.979 166.097 125.922 165.937V165.937Z" fill="#1481BA"/>
<path d="M184.467 165.896L177.178 257.363C177.178 257.363 186.81 256.065 195.241 258.484C203.672 260.903 205.686 262.554 210.667 259.439C215.647 256.325 217.461 255.287 223.678 258.349C229.895 261.412 245.603 258.951 253.316 259.388C261.028 259.824 260.228 264.641 266.268 264.88C272.309 265.118 282.753 265.918 282.753 265.918L290.207 172.478L184.467 165.896ZM192.827 177.482C192.242 177.446 191.681 177.257 191.217 176.94C190.753 176.623 190.406 176.191 190.221 175.7C190.035 175.209 190.019 174.68 190.174 174.181C190.329 173.681 190.649 173.234 191.093 172.895C191.537 172.556 192.085 172.341 192.667 172.276C193.25 172.212 193.841 172.302 194.366 172.534C194.891 172.766 195.326 173.13 195.616 173.581C195.906 174.031 196.038 174.547 195.995 175.063C195.938 175.754 195.572 176.397 194.978 176.85C194.384 177.304 193.611 177.531 192.827 177.482V177.482ZM207.358 178.386C206.771 178.351 206.21 178.164 205.744 177.848C205.278 177.532 204.929 177.101 204.742 176.61C204.554 176.119 204.536 175.589 204.691 175.089C204.845 174.589 205.164 174.141 205.607 173.801C206.051 173.461 206.599 173.244 207.182 173.179C207.765 173.114 208.357 173.204 208.883 173.436C209.408 173.668 209.844 174.032 210.134 174.483C210.424 174.933 210.556 175.45 210.513 175.967C210.456 176.655 210.092 177.296 209.501 177.75C208.91 178.203 208.139 178.431 207.358 178.386V178.386ZM221.876 179.289C221.291 179.253 220.731 179.064 220.267 178.748C219.803 178.431 219.456 178 219.27 177.509C219.083 177.019 219.066 176.491 219.221 175.991C219.375 175.492 219.693 175.045 220.136 174.705C220.579 174.365 221.126 174.149 221.708 174.084C222.29 174.018 222.881 174.106 223.406 174.337C223.931 174.568 224.367 174.93 224.659 175.379C224.95 175.828 225.084 176.343 225.044 176.859C225.024 177.207 224.927 177.547 224.756 177.861C224.586 178.175 224.346 178.455 224.051 178.687C223.756 178.918 223.412 179.094 223.038 179.207C222.665 179.319 222.27 179.365 221.876 179.341V179.289ZM236.407 180.192C235.821 180.156 235.261 179.968 234.797 179.651C234.333 179.334 233.986 178.903 233.8 178.413C233.614 177.922 233.597 177.394 233.751 176.895C233.905 176.395 234.224 175.948 234.666 175.608C235.109 175.269 235.656 175.053 236.238 174.987C236.82 174.921 237.411 175.01 237.936 175.24C238.462 175.471 238.898 175.833 239.189 176.282C239.481 176.731 239.615 177.247 239.574 177.763C239.547 178.106 239.444 178.441 239.27 178.748C239.096 179.056 238.856 179.331 238.561 179.556C238.267 179.782 237.926 179.954 237.556 180.063C237.186 180.172 236.796 180.216 236.407 180.192V180.192ZM250.937 181.085C250.351 181.049 249.791 180.86 249.327 180.543C248.863 180.225 248.516 179.794 248.33 179.303C248.144 178.811 248.128 178.283 248.283 177.783C248.439 177.284 248.758 176.837 249.202 176.498C249.646 176.159 250.194 175.943 250.777 175.879C251.36 175.815 251.951 175.904 252.476 176.137C253.001 176.369 253.436 176.733 253.725 177.183C254.015 177.634 254.147 178.15 254.104 178.666C254.079 179.009 253.977 179.344 253.803 179.652C253.63 179.96 253.389 180.234 253.094 180.459C252.8 180.684 252.457 180.856 252.087 180.963C251.717 181.07 251.326 181.112 250.937 181.085V181.085ZM265.467 181.988C264.882 181.952 264.321 181.763 263.857 181.446C263.393 181.129 263.046 180.697 262.86 180.206C262.675 179.715 262.658 179.186 262.814 178.687C262.969 178.187 263.289 177.74 263.733 177.401C264.177 177.062 264.725 176.847 265.307 176.782C265.89 176.718 266.481 176.808 267.006 177.04C267.531 177.272 267.966 177.636 268.256 178.087C268.546 178.537 268.678 179.053 268.635 179.569C268.575 180.259 268.208 180.9 267.615 181.353C267.022 181.806 266.25 182.034 265.467 181.988V181.988ZM279.998 182.892C279.412 182.857 278.85 182.671 278.385 182.355C277.919 182.039 277.57 181.609 277.382 181.119C277.194 180.628 277.175 180.099 277.328 179.599C277.481 179.099 277.799 178.651 278.242 178.31C278.684 177.97 279.231 177.752 279.814 177.686C280.396 177.62 280.988 177.707 281.514 177.938C282.04 178.168 282.476 178.531 282.768 178.981C283.06 179.43 283.194 179.946 283.153 180.462C283.099 181.153 282.736 181.796 282.145 182.252C281.553 182.707 280.781 182.937 279.998 182.892V182.892Z" fill="#1481BA"/>
<path d="M213.198 182.757C212.296 182.755 211.422 182.486 210.715 181.992C210.008 181.499 209.51 180.81 209.301 180.036L205.427 165.948C205.175 165.032 205.347 164.066 205.903 163.262C206.46 162.458 207.356 161.882 208.394 161.66C209.432 161.438 210.528 161.589 211.44 162.08C212.352 162.571 213.006 163.361 213.257 164.276L216.719 176.891C216.738 176.957 216.742 177.027 216.731 177.095C216.719 177.163 216.692 177.229 216.652 177.288C216.611 177.347 216.558 177.398 216.494 177.439C216.431 177.479 216.359 177.508 216.283 177.524C216.132 177.555 215.972 177.532 215.84 177.46C215.708 177.388 215.613 177.273 215.577 177.14L212.115 164.525C211.937 163.877 211.474 163.317 210.828 162.97C210.182 162.622 209.406 162.515 208.671 162.672C207.935 162.829 207.301 163.237 206.906 163.807C206.512 164.376 206.391 165.061 206.569 165.709L210.443 179.798C210.624 180.443 211.087 180.999 211.731 181.345C212.375 181.691 213.147 181.799 213.881 181.646L215.694 181.251C216.058 181.176 216.4 181.037 216.702 180.842C217.003 180.648 217.257 180.402 217.449 180.119C217.646 179.839 217.777 179.526 217.836 179.2C217.895 178.874 217.879 178.54 217.79 178.22L212.433 158.722C212.33 158.156 212.096 157.615 211.744 157.133C211.393 156.65 210.932 156.238 210.391 155.92C209.85 155.603 209.24 155.387 208.6 155.288C207.96 155.188 207.303 155.206 206.671 155.342C206.04 155.477 205.447 155.726 204.929 156.073C204.412 156.42 203.982 156.858 203.666 157.358C203.35 157.859 203.155 158.412 203.093 158.983C203.031 159.553 203.104 160.129 203.307 160.674L205.003 166.82C205.038 166.955 205.013 167.097 204.931 167.215C204.85 167.333 204.719 167.419 204.567 167.453C204.416 167.484 204.256 167.462 204.124 167.39C203.992 167.318 203.897 167.202 203.861 167.069L202.165 160.912C201.801 159.578 202.05 158.171 202.86 156.998C203.469 156.131 204.355 155.442 205.407 155.016C206.458 154.59 207.628 154.447 208.771 154.604C209.915 154.762 210.98 155.212 211.834 155.9C212.688 156.588 213.294 157.483 213.575 158.473L218.933 177.981C219.057 178.434 219.079 178.905 218.998 179.366C218.916 179.826 218.732 180.269 218.457 180.667C218.181 181.065 217.819 181.411 217.392 181.686C216.964 181.961 216.48 182.159 215.965 182.269L214.164 182.653C213.847 182.718 213.523 182.753 213.198 182.757V182.757Z" fill="#231F20"/>
<path d="M415.104 50.7885L319.161 54.9414C319.161 54.9414 321.846 123.516 330.442 147.011L434.003 142.079C434.003 142.079 418.542 87.9775 415.104 50.7885Z" fill="#231F20"/>
<path d="M355.605 70.442H353.745C352.677 70.442 351.652 70.068 350.897 69.4021C350.142 68.7362 349.718 67.833 349.718 66.8913V52.3563C349.718 51.4146 350.142 50.5114 350.897 49.8455C351.652 49.1796 352.677 48.8056 353.745 48.8056C354.813 48.8056 355.837 49.1796 356.592 49.8455C357.347 50.5114 357.772 51.4146 357.772 52.3563V65.334C357.772 65.4717 357.71 65.6037 357.599 65.7011C357.489 65.7984 357.339 65.8531 357.183 65.8531C357.027 65.8531 356.877 65.7984 356.767 65.7011C356.656 65.6037 356.594 65.4717 356.594 65.334V52.3978C356.594 51.7314 356.294 51.0924 355.76 50.6212C355.225 50.15 354.5 49.8853 353.745 49.8853C352.989 49.8853 352.264 50.15 351.73 50.6212C351.195 51.0924 350.895 51.7314 350.895 52.3978V66.9329C350.895 67.5992 351.195 68.2383 351.73 68.7095C352.264 69.1806 352.989 69.4454 353.745 69.4454H355.605C356.361 69.4454 357.086 69.1806 357.62 68.7095C358.154 68.2383 358.455 67.5992 358.455 66.9329V46.8329C358.455 45.7315 357.958 44.6752 357.075 43.8964C356.192 43.1176 354.994 42.6801 353.745 42.6801C352.495 42.6801 351.297 43.1176 350.414 43.8964C349.531 44.6752 349.035 45.7315 349.035 46.8329V53.1557C349.035 53.2934 348.973 53.4254 348.862 53.5228C348.752 53.6201 348.602 53.6748 348.446 53.6748C348.29 53.6748 348.14 53.6201 348.029 53.5228C347.919 53.4254 347.857 53.2934 347.857 53.1557V46.8329C347.857 45.4562 348.477 44.1358 349.581 43.1623C350.686 42.1888 352.183 41.6418 353.745 41.6418C355.306 41.6418 356.804 42.1888 357.908 43.1623C359.012 44.1358 359.632 45.4562 359.632 46.8329V66.8913C359.632 67.833 359.208 68.7362 358.453 69.4021C357.697 70.068 356.673 70.442 355.605 70.442V70.442Z" fill="#1481BA"/>
<path d="M180.687 52.3563V145.734H286.592V52.3563H180.687Z" fill="white"/>
<path d="M286.592 146.253H180.687C180.532 146.25 180.384 146.195 180.274 146.098C180.165 146.001 180.102 145.871 180.099 145.734V52.3563C180.099 52.2186 180.161 52.0865 180.271 51.9892C180.381 51.8918 180.531 51.8371 180.687 51.8371H286.592C286.748 51.8371 286.898 51.8918 287.008 51.9892C287.118 52.0865 287.18 52.2186 287.18 52.3563V145.734C287.18 145.871 287.118 146.003 287.008 146.101C286.898 146.198 286.748 146.253 286.592 146.253ZM181.276 145.215H286.003V52.8754H181.335L181.276 145.215Z" fill="#231F20"/>
<path d="M195.995 141.685C195.839 141.685 195.689 141.63 195.579 141.533C195.468 141.435 195.406 141.303 195.406 141.166V55.6267C195.406 55.489 195.468 55.3569 195.579 55.2596C195.689 55.1622 195.839 55.1075 195.995 55.1075C196.151 55.1075 196.301 55.1622 196.411 55.2596C196.522 55.3569 196.584 55.489 196.584 55.6267V141.166C196.584 141.303 196.522 141.435 196.411 141.533C196.301 141.63 196.151 141.685 195.995 141.685V141.685Z" fill="#D1D3D4"/>
<path d="M280.245 68.1787H187.223C187.066 68.1787 186.917 68.124 186.806 68.0267C186.696 67.9293 186.634 67.7973 186.634 67.6596C186.634 67.5219 186.696 67.3899 186.806 67.2925C186.917 67.1952 187.066 67.1405 187.223 67.1405H280.245C280.401 67.1405 280.551 67.1952 280.661 67.2925C280.772 67.3899 280.834 67.5219 280.834 67.6596C280.834 67.7973 280.772 67.9293 280.661 68.0267C280.551 68.124 280.401 68.1787 280.245 68.1787Z" fill="#D1D3D4"/>
<path d="M280.245 84.0842H187.223C187.066 84.0842 186.917 84.0295 186.806 83.9322C186.696 83.8348 186.634 83.7028 186.634 83.5651C186.634 83.4274 186.696 83.2954 186.806 83.1981C186.917 83.1007 187.066 83.046 187.223 83.046H280.245C280.401 83.046 280.551 83.1007 280.661 83.1981C280.772 83.2954 280.834 83.4274 280.834 83.5651C280.834 83.7028 280.772 83.8348 280.661 83.9322C280.551 84.0295 280.401 84.0842 280.245 84.0842Z" fill="#D1D3D4"/>
<path d="M280.245 100H187.223C187.066 100 186.917 99.9454 186.806 99.8481C186.696 99.7507 186.634 99.6187 186.634 99.481C186.634 99.3433 186.696 99.2113 186.806 99.1139C186.917 99.0166 187.066 98.9619 187.223 98.9619H280.245C280.401 98.9619 280.551 99.0166 280.661 99.1139C280.772 99.2113 280.834 99.3433 280.834 99.481C280.834 99.6187 280.772 99.7507 280.661 99.8481C280.551 99.9454 280.401 100 280.245 100Z" fill="#D1D3D4"/>
<path d="M280.245 115.916H187.223C187.066 115.916 186.917 115.861 186.806 115.764C186.696 115.667 186.634 115.535 186.634 115.397C186.634 115.259 186.696 115.127 186.806 115.03C186.917 114.932 187.066 114.878 187.223 114.878H280.245C280.401 114.878 280.551 114.932 280.661 115.03C280.772 115.127 280.834 115.259 280.834 115.397C280.834 115.535 280.772 115.667 280.661 115.764C280.551 115.861 280.401 115.916 280.245 115.916Z" fill="#D1D3D4"/>
<path d="M280.245 131.832H187.223C187.066 131.832 186.917 131.777 186.806 131.68C186.696 131.583 186.634 131.45 186.634 131.313C186.634 131.175 186.696 131.043 186.806 130.946C186.917 130.848 187.066 130.794 187.223 130.794H280.245C280.401 130.794 280.551 130.848 280.661 130.946C280.772 131.043 280.834 131.175 280.834 131.313C280.834 131.45 280.772 131.583 280.661 131.68C280.551 131.777 280.401 131.832 280.245 131.832Z" fill="#D1D3D4"/>
<path d="M233.816 59.9456C234.069 59.7501 234.305 59.5384 234.523 59.3123C235.7 58.108 240.057 52.0448 240.057 52.0448L238.35 51.4011C238.35 51.4011 234.063 57.1736 233.286 58.2326C233.073 58.5346 232.903 58.8589 232.78 59.1981L233.816 59.9456Z" fill="#231F20"/>
<path d="M239.68 55.6266C242.353 55.6266 244.52 53.7162 244.52 51.3596C244.52 49.0029 242.353 47.0925 239.68 47.0925C237.007 47.0925 234.841 49.0029 234.841 51.3596C234.841 53.7162 237.007 55.6266 239.68 55.6266Z" fill="white"/>
<path d="M239.68 56.1458C238.606 56.1478 237.555 55.8688 236.661 55.3442C235.767 54.8195 235.069 54.0727 234.657 53.1984C234.244 52.324 234.135 51.3613 234.343 50.4322C234.551 49.5031 235.067 48.6493 235.826 47.9789C236.584 47.3085 237.552 46.8516 238.605 46.6661C239.658 46.4806 240.75 46.5748 241.743 46.9367C242.735 47.2987 243.584 47.9121 244.181 48.6994C244.778 49.4867 245.097 50.4125 245.097 51.3596C245.097 52.6271 244.526 53.843 243.511 54.7402C242.495 55.6375 241.118 56.143 239.68 56.1458V56.1458ZM239.68 47.6116C238.839 47.6095 238.016 47.8276 237.315 48.2382C236.615 48.6488 236.068 49.2334 235.745 49.9181C235.421 50.6027 235.335 51.3567 235.498 52.0844C235.66 52.8121 236.064 53.4809 236.658 54.0061C237.252 54.5313 238.01 54.8893 238.835 55.0347C239.66 55.1802 240.515 55.1066 241.292 54.8232C242.07 54.5398 242.734 54.0595 243.202 53.4429C243.67 52.8263 243.919 52.1013 243.919 51.3596C243.919 50.3673 243.473 49.4156 242.678 48.713C241.884 48.0104 240.805 47.6143 239.68 47.6116V47.6116Z" fill="#231F20"/>
<path d="M241.187 52.5639C243.444 52.5639 245.273 50.951 245.273 48.9613C245.273 46.9716 243.444 45.3587 241.187 45.3587C238.931 45.3587 237.101 46.9716 237.101 48.9613C237.101 50.951 238.931 52.5639 241.187 52.5639Z" fill="white"/>
<path d="M241.187 53.083C240.256 53.083 239.345 52.8394 238.571 52.3831C237.796 51.9268 237.192 51.2782 236.836 50.5194C236.479 49.7605 236.386 48.9255 236.568 48.1199C236.75 47.3144 237.198 46.5744 237.857 45.9936C238.516 45.4128 239.355 45.0173 240.268 44.8571C241.182 44.6968 242.129 44.7791 242.99 45.0934C243.85 45.4077 244.586 45.94 245.104 46.6229C245.621 47.3059 245.897 48.1088 245.897 48.9301C245.897 50.0315 245.401 51.0878 244.518 51.8667C243.635 52.6455 242.436 53.083 241.187 53.083ZM241.187 45.8778C240.489 45.8778 239.806 46.0604 239.225 46.4027C238.644 46.7449 238.191 47.2314 237.924 47.8005C237.656 48.3696 237.586 48.9959 237.723 49.6001C237.859 50.2042 238.195 50.7592 238.689 51.1948C239.184 51.6304 239.813 51.9271 240.498 52.0472C241.183 52.1674 241.894 52.1057 242.539 51.87C243.185 51.6342 243.736 51.235 244.124 50.7228C244.513 50.2106 244.72 49.6084 244.72 48.9924C244.72 48.1664 244.348 47.3741 243.685 46.79C243.023 46.2059 242.124 45.8778 241.187 45.8778Z" fill="#231F20"/>
</svg>
